<?xml version="1.0" standalone="no"?>
<!DOCTYPE svg PUBLIC "-//W3C//DTD SVG 20010904//EN"
 "http://www.w3.org/TR/2001/REC-SVG-20010904/DTD/svg10.dtd">
<svg version="1.0" xmlns="http://www.w3.org/2000/svg"
 width="941.000000pt" height="941.000000pt" viewBox="0 0 941.000000 941.000000"
 preserveAspectRatio="xMidYMid meet">
<metadata>
Created by potrace 1.14, written by Peter Selinger 2001-2017
</metadata>
<g transform="translate(0.000000,941.000000) scale(0.100000,-0.100000)"
fill="#000000" stroke="none">
<path d="M4175 8358 c-285 -574 -528 -1062 -538 -1085 l-19 -42 82 -163 c127
-251 612 -1211 812 -1608 99 -195 184 -359 188 -364 5 -5 250 476 546 1069
l537 1077 -539 1079 c-296 593 -541 1079 -544 1079 -3 0 -239 -469 -525 -1042z"/>
<path d="M3318 6629 c-86 -173 -481 -966 -878 -1764 -1207 -2423 -1660 -3335
-1660 -3340 0 -3 1213 -5 2695 -5 1482 0 2695 2 2695 4 0 2 -95 194 -211 427
-288 577 -1430 2871 -2010 4038 l-475 954 -156 -314z"/>
<path d="M5778 6629 c-86 -173 -327 -658 -537 -1078 -209 -420 -381 -769 -381
-774 0 -5 141 -294 314 -641 173 -347 536 -1078 807 -1623 l494 -993 1077 0
1078 0 -9 23 c-5 12 -117 238 -249 502 -132 264 -465 935 -741 1490 -276 556
-506 1017 -510 1025 -5 8 -46 90 -92 182 -45 91 -310 624 -589 1184 l-507
1018 -155 -315z"/>
<path d="M2380 1242 c-6 -2 -64 -113 -129 -245 -66 -133 -197 -400 -293 -592
-95 -193 -178 -362 -185 -376 l-11 -26 2909 0 c1601 0 2911 3 2913 6 2 3 -134
283 -303 621 l-306 615 -2292 0 c-1261 0 -2298 -2 -2303 -3z"/>
</g>
</svg>
